<?xml version="1.0" standalone="no"?>
<!DOCTYPE svg PUBLIC "-//W3C//DTD SVG 20010904//EN"
 "http://www.w3.org/TR/2001/REC-SVG-20010904/DTD/svg10.dtd">
<svg version="1.0" xmlns="http://www.w3.org/2000/svg"
 width="512.000000pt" height="512.000000pt" viewBox="0 0 512.000000 512.000000"
 preserveAspectRatio="xMidYMid meet">
<metadata>
Created by potrace 1.11, written by Peter Selinger 2001-2013
</metadata>
<g transform="translate(0.000000,512.000000) scale(0.100000,-0.100000)"
fill="#000000" stroke="none">
<path d="M4179 4698 c0 -2 -2 -12 -4 -23 -6 -33 -18 -89 -22 -105 -2 -8 -6
-24 -8 -35 -2 -11 -15 -57 -29 -103 -14 -46 -27 -101 -30 -122 -2 -21 -7 -44
-11 -49 -3 -6 -3 -11 2 -11 4 0 9 -28 9 -63 2 -68 10 -121 23 -146 5 -9 9 -19
10 -24 5 -50 87 -220 102 -211 36 22 130 310 135 415 4 107 -25 224 -90 360
-39 80 -81 136 -87 117z"/>
<path d="M2171 4252 c-52 -125 -106 -252 -120 -282 -13 -30 -25 -57 -26 -60
-1 -7 -90 -219 -122 -290 -48 -109 -53 -121 -53 -131 0 -6 23 -8 56 -7 l56 3
29 70 c16 39 34 81 40 95 5 14 27 66 48 115 l37 90 151 3 150 3 58 -138 c32
-76 69 -162 81 -190 l23 -53 55 0 c60 0 61 1 47 28 -5 9 -21 46 -36 82 -15 36
-33 79 -41 95 -7 17 -47 113 -90 215 -42 102 -87 209 -100 238 -13 29 -24 55
-24 57 0 2 -11 28 -24 57 -13 29 -41 92 -61 141 -21 48 -38 87 -39 87 0 0 -44
-103 -95 -228z m125 -107 c48 -111 72 -170 70 -173 -7 -6 -196 -7 -196 -1 0 4
14 39 30 78 59 137 56 131 59 159 2 18 3 17 37 -63z"/>
<path d="M1598 4444 c-4 -5 -26 -9 -50 -7 -42 2 -48 -1 -115 -65 -59 -57 -350
-333 -356 -339 -1 -1 -2 89 -2 200 l0 202 -55 0 -55 0 0 -475 0 -475 55 0 55
0 0 207 0 206 40 36 c21 20 41 36 44 36 4 0 17 -15 31 -32 14 -18 52 -66 85
-107 33 -42 85 -108 115 -146 30 -39 58 -74 62 -80 27 -33 46 -57 72 -89 27
-35 30 -36 93 -36 l65 0 -17 27 c-10 15 -46 61 -79 102 -34 42 -66 83 -73 91
-142 179 -224 282 -248 313 l-29 39 81 76 c261 247 313 298 313 305 0 4 -4 6
-9 3 -5 -4 -11 -1 -13 6 -3 7 -7 8 -10 2z"/>
<path d="M3154 4441 c-2 -3 -12 -5 -22 -6 -39 -4 -82 -17 -82 -26 0 -5 -5 -9
-12 -9 -21 0 -84 -76 -96 -116 -25 -86 -16 -167 26 -224 46 -64 81 -86 206
-132 142 -51 196 -102 196 -185 0 -97 -72 -161 -180 -161 -30 0 -61 5 -67 11
-7 5 -13 7 -13 3 0 -12 -77 35 -113 69 l-37 35 -35 -36 c-38 -39 -37 -57 8
-87 13 -9 30 -22 38 -29 17 -17 103 -58 139 -66 14 -3 59 -6 100 -6 83 -1 137
19 198 73 72 64 99 210 55 296 -19 37 -76 105 -88 105 -3 0 -18 9 -33 20 -15
11 -76 40 -137 65 -60 25 -121 56 -134 70 -52 51 -29 168 41 209 56 34 164 19
237 -33 l27 -20 28 35 c35 44 29 62 -31 96 -70 38 -200 68 -219 49z"/>
<path d="M113 3961 l2 -476 300 0 300 0 3 52 3 53 -248 2 -247 3 -1 155 0 155
210 2 210 1 0 54 0 53 -107 0 c-60 0 -108 4 -108 9 0 5 -6 4 -12 -1 -11 -7
-63 -9 -168 -4 l-25 1 0 153 0 152 170 2 c94 1 200 2 236 2 l67 1 3 33 c2 17
3 41 1 53 -3 21 -6 21 -297 21 l-294 0 2 -476z"/>
<path d="M4395 4249 c3 -108 -13 -182 -60 -284 -83 -183 -100 -242 -84 -298
12 -43 32 -65 77 -84 44 -18 91 -14 120 11 12 11 22 15 22 10 0 -5 16 13 35
40 51 72 55 119 20 266 -3 14 -42 163 -49 185 -1 6 -8 30 -15 55 -15 54 -62
194 -66 198 -1 2 -2 -43 0 -99z"/>
<path d="M4013 4303 c-8 -21 -16 -42 -17 -48 -1 -5 -15 -50 -30 -100 -15 -49
-29 -96 -31 -105 -2 -8 -15 -61 -30 -118 -32 -128 -36 -175 -18 -228 16 -48
72 -110 112 -125 44 -17 108 -2 144 35 54 53 48 123 -20 276 -58 127 -69 158
-86 235 -14 63 -15 141 -2 188 11 40 -3 33 -22 -10z"/>
<path d="M3735 3933 c-27 -57 -51 -108 -51 -113 -1 -6 -3 -11 -4 -12 -1 -2 -4
-28 -5 -58 -3 -66 9 -111 42 -161 47 -71 174 -99 268 -59 l30 12 -30 10 c-52
18 -92 56 -120 113 -23 46 -28 71 -31 152 -3 93 -23 197 -41 213 -4 4 -30 -39
-58 -97z"/>
<path d="M4615 3988 c-10 -25 -20 -91 -24 -164 -7 -99 -12 -129 -32 -165 -21
-37 -70 -91 -88 -95 -27 -7 -51 -18 -51 -23 0 -15 73 -32 123 -30 132 7 209
91 208 227 0 26 -2 54 -4 62 -8 35 -100 230 -108 230 -4 0 -14 -19 -24 -42z"/>
<path d="M0 3342 l0 -47 788 1 c433 1 790 2 793 3 3 0 6 21 5 46 l0 45 -793 0
-793 0 0 -48z"/>
<path d="M4 2911 c-2 -2 -4 -24 -4 -48 l0 -43 1190 0 1190 0 0 48 0 47 -1186
0 c-652 0 -1187 -1 -1190 -4z"/>
<path d="M8 2439 c-5 -3 -8 -26 -6 -50 l3 -44 1575 -1 c866 0 1580 1 1585 3
12 4 14 77 3 89 -9 9 -3145 12 -3160 3z"/>
<path d="M2035 2086 c-25 -25 -29 -39 -25 -85 1 -14 -2 -21 -9 -17 -6 4 -11 3
-11 -3 0 -5 5 -13 10 -16 6 -4 9 -25 8 -48 -2 -23 2 -43 7 -44 6 -2 10 18 9
47 -1 42 2 50 20 53 21 4 21 5 -1 12 -19 6 -22 13 -18 41 5 43 12 53 38 63 13
5 16 10 9 15 -7 4 -23 -4 -37 -18z"/>
<path d="M350 1976 l0 -114 28 -3 c43 -6 118 5 112 16 -3 6 -29 10 -58 10
l-53 0 3 40 c3 38 5 40 36 40 19 0 36 -3 39 -8 7 -11 23 2 23 19 0 10 -13 14
-48 14 -27 0 -51 2 -53 5 -3 2 -3 19 -1 37 4 33 4 33 58 32 40 -1 54 2 54 12
0 11 -17 14 -70 14 l-70 0 0 -114z"/>
<path d="M1479 2088 c-1 -2 -2 -54 -3 -115 -2 -87 1 -113 11 -113 13 0 17 21
14 72 -2 38 17 45 45 15 13 -15 24 -29 24 -32 0 -12 65 -65 68 -55 3 9 -61 96
-82 111 -14 11 3 45 41 79 22 20 32 35 24 38 -6 2 -34 -17 -61 -42 -27 -25
-51 -46 -54 -46 -3 0 -5 15 -4 33 1 47 -1 57 -12 57 -5 0 -11 -1 -11 -2z"/>
<path d="M2583 2078 c-4 -7 -27 -59 -50 -116 -33 -81 -38 -103 -26 -100 9 2
23 22 32 46 14 39 18 42 52 42 34 0 38 -3 56 -45 10 -25 24 -45 31 -45 14 0
16 21 4 36 -5 5 -26 51 -47 102 -21 50 -39 92 -41 92 -1 0 -6 -6 -11 -12z m25
-75 c9 -16 9 -22 -2 -26 -23 -9 -34 6 -25 32 10 26 11 26 27 -6z"/>
<path d="M3786 2071 c-10 -11 -16 -31 -14 -48 2 -22 13 -33 51 -52 40 -20 47
-28 47 -52 0 -16 -4 -30 -10 -30 -5 -1 -16 -2 -22 -4 -7 -1 -22 4 -34 11 -22
13 -47 5 -36 -12 8 -13 60 -28 82 -25 8 1 25 13 37 26 32 36 15 79 -42 104
-54 24 -61 35 -35 61 16 16 24 18 40 10 28 -15 49 -1 25 17 -27 19 -69 16 -89
-6z"/>
<path d="M1120 2058 c-1 -5 -3 -23 -4 -40 -1 -20 -7 -32 -14 -30 -16 3 -15
-15 1 -21 9 -3 13 -21 12 -51 -1 -26 2 -49 7 -52 4 -3 8 20 8 51 0 46 3 56 15
52 8 -4 17 -2 20 3 4 6 -3 10 -14 10 -16 0 -21 8 -24 43 -2 23 -5 39 -7 35z"/>
<path d="M2132 2025 c3 -24 0 -35 -9 -35 -16 0 -17 -17 -1 -22 7 -3 11 -25 11
-56 -1 -29 3 -52 7 -52 4 0 7 12 8 28 0 72 2 82 18 82 8 0 12 5 9 10 -4 6 -11
8 -16 5 -9 -6 -11 5 -12 53 0 12 -4 22 -9 22 -6 0 -8 -16 -6 -35z"/>
<path d="M4284 2023 c1 -25 -3 -37 -11 -35 -7 1 -13 -2 -13 -8 0 -5 6 -10 13
-10 10 0 13 -13 12 -47 -3 -68 9 -79 15 -13 4 45 8 55 23 54 24 -2 22 12 -3
19 -15 4 -20 14 -20 41 0 20 -4 36 -8 36 -4 0 -8 -17 -8 -37z"/>
<path d="M560 2031 c0 -6 4 -13 10 -16 6 -3 7 1 4 9 -7 18 -14 21 -14 7z"/>
<path d="M1835 2030 c-3 -5 -1 -10 4 -10 6 0 11 5 11 10 0 6 -2 10 -4 10 -3 0
-8 -4 -11 -10z"/>
<path d="M1890 2024 c0 -8 5 -12 10 -9 6 4 8 11 5 16 -9 14 -15 11 -15 -7z"/>
<path d="M3240 2030 c0 -5 5 -10 11 -10 5 0 7 5 4 10 -3 6 -8 10 -11 10 -2 0
-4 -4 -4 -10z"/>
<path d="M2916 1986 c7 -18 50 -26 63 -13 8 8 11 6 11 -4 0 -8 -18 -33 -40
-54 -22 -21 -40 -43 -40 -47 0 -4 27 -8 61 -8 33 0 58 4 55 8 -3 5 -23 8 -46
7 -22 -1 -40 1 -40 4 0 3 19 24 41 47 43 44 45 66 5 58 -14 -2 -36 0 -50 6
-20 7 -24 6 -20 -4z"/>
<path d="M683 1983 c-7 -3 -13 -12 -13 -21 0 -13 -2 -12 -14 3 -13 18 -14 14
-13 -37 1 -31 6 -60 10 -65 5 -4 7 10 5 32 -4 44 17 75 52 75 20 0 21 -4 24
-67 2 -56 16 -48 16 10 0 31 -4 59 -10 62 -15 9 -43 13 -57 8z"/>
<path d="M833 1980 c-32 -13 -29 -34 8 -63 35 -27 31 -50 -7 -43 -28 5 -33 -9
-5 -17 11 -3 29 2 40 9 17 13 19 18 9 40 -6 13 -17 23 -23 20 -6 -2 -17 4 -23
14 -13 21 6 34 36 23 15 -6 15 -5 3 10 -7 9 -14 17 -15 16 0 0 -11 -4 -23 -9z"/>
<path d="M960 1983 c-45 -18 -59 -72 -27 -101 32 -28 53 -33 74 -16 17 13 17
14 -7 13 -49 -4 -58 1 -65 31 -4 20 -2 35 9 45 34 35 92 4 82 -44 -3 -14 -2
-33 4 -41 12 -18 12 -18 15 50 2 50 0 55 -19 56 -12 0 -28 3 -36 7 -8 3 -22 3
-30 0z"/>
<path d="M1200 1979 c0 -4 19 -9 43 -11 l42 -3 -47 -46 c-26 -26 -44 -49 -41
-53 4 -3 34 -6 67 -6 37 0 56 4 48 9 -8 4 -29 7 -48 5 -41 -3 -43 9 -6 44 16
15 34 36 39 47 11 19 8 21 -43 21 -30 1 -54 -3 -54 -7z"/>
<path d="M1701 1927 c-1 -39 3 -66 8 -63 5 4 8 22 6 42 -2 31 2 39 29 55 28
17 29 19 9 19 -13 0 -23 -4 -23 -10 0 -17 -18 -11 -23 8 -3 9 -5 -14 -6 -51z"/>
<path d="M1842 1979 c-32 -12 -48 -52 -34 -84 16 -35 50 -46 84 -29 21 11 28
11 31 1 3 -6 6 17 6 53 0 51 -2 61 -10 47 -6 -11 -9 -29 -7 -41 8 -42 -49 -69
-81 -37 -37 37 2 90 57 76 22 -5 25 -4 15 6 -16 16 -32 18 -61 8z"/>
<path d="M2255 1980 c-4 -6 -10 -8 -15 -5 -12 7 -32 -58 -24 -79 15 -38 94
-53 94 -18 0 10 -3 13 -8 7 -11 -15 -30 -17 -54 -4 -21 11 -21 12 7 26 15 9
33 16 39 17 18 3 36 16 36 27 0 5 -22 -2 -50 -16 -48 -24 -50 -25 -50 -6 0 24
34 45 61 38 23 -6 26 8 3 17 -22 9 -32 8 -39 -4z"/>
<path d="M2764 1978 c3 -10 0 -18 -6 -18 -9 0 -9 -3 -1 -11 7 -7 8 -20 4 -33
-10 -25 2 -66 13 -48 4 7 4 21 1 33 -9 26 20 69 46 69 24 0 36 -29 32 -76 -1
-20 2 -32 7 -29 11 7 8 80 -4 106 -7 17 -28 18 -60 4 -12 -5 -21 -3 -28 6 -8
11 -9 10 -4 -3z"/>
<path d="M3120 1983 c-52 -19 -65 -69 -27 -107 27 -27 77 -25 77 3 0 9 -3 12
-8 6 -11 -16 -42 -18 -58 -4 -13 11 -11 15 18 30 18 10 41 18 51 19 23 0 22
15 -5 40 -23 21 -24 22 -48 13z m43 -26 c3 -7 -11 -19 -34 -29 -37 -16 -39
-15 -39 1 0 9 5 22 12 29 16 16 55 15 61 -1z"/>
<path d="M3353 1982 c-21 -3 -50 -37 -48 -57 1 -5 4 -20 9 -32 9 -27 68 -42
91 -23 24 20 19 -36 -5 -60 -22 -22 -41 -25 -57 -9 -7 7 -13 8 -17 0 -9 -14
37 -25 68 -17 14 3 28 16 32 29 10 31 11 167 2 167 -8 0 -10 -7 -12 -55 -2
-52 -74 -67 -93 -19 -3 9 -1 26 5 39 9 19 17 23 46 20 20 -2 36 1 36 5 0 10
-29 17 -57 12z"/>
<path d="M3524 1977 c-23 -13 -42 -37 -40 -51 6 -34 19 -54 39 -63 25 -12 67
0 67 18 0 8 -4 8 -15 -1 -15 -12 -65 -6 -65 8 0 10 38 33 62 37 29 6 34 13 22
32 -14 23 -47 33 -70 20z m53 -23 c2 -6 -4 -14 -14 -18 -10 -3 -28 -10 -41
-16 -21 -9 -23 -8 -16 13 4 12 12 25 18 30 15 10 49 4 53 -9z"/>
<path d="M3961 1980 c0 -8 13 -39 29 -69 l28 -53 -19 -34 c-21 -39 -23 -44
-10 -44 5 0 12 11 15 25 4 14 11 25 16 25 6 0 10 8 10 18 0 10 5 23 12 30 7 7
8 12 3 12 -6 0 -6 3 0 8 14 10 45 68 45 84 0 7 -16 -14 -35 -47 -29 -50 -35
-56 -42 -40 -14 38 -53 100 -52 85z"/>
<path d="M4156 1974 c-9 -8 -16 -21 -16 -29 0 -12 21 -25 37 -24 3 1 11 -7 16
-16 11 -21 -8 -38 -35 -31 -10 2 -18 0 -18 -4 0 -15 34 -16 56 -3 28 18 21 43
-17 66 -34 19 -29 41 7 34 20 -3 22 -2 13 9 -15 18 -24 18 -43 -2z"/>
<path d="M4393 1972 c-11 -10 -23 -25 -26 -35 -17 -47 51 -101 90 -71 17 13
16 14 -9 8 -17 -4 -35 0 -48 9 l-22 15 24 7 c33 9 72 28 80 40 8 10 -22 34
-50 40 -10 2 -27 -4 -39 -13z m66 -11 c12 -8 9 -12 -15 -21 -16 -7 -37 -16
-46 -21 -21 -11 -24 2 -8 32 11 20 45 25 69 10z"/>
<path d="M4584 1976 c-11 -8 -23 -11 -29 -6 -12 10 -14 -95 -2 -106 4 -4 7 11
7 34 0 44 20 72 51 72 21 0 21 1 23 -57 2 -43 15 -72 17 -37 3 80 13 97 54 92
17 -3 21 -13 25 -58 3 -30 8 -50 11 -45 10 16 3 93 -10 109 -13 15 -45 14 -65
-3 -7 -6 -18 -4 -30 5 -11 8 -23 14 -26 14 -3 0 -15 -6 -26 -14z"/>
<path d="M567 1973 c-10 -9 -9 -101 1 -107 4 -2 8 22 8 55 1 32 0 59 -1 59 -1
0 -5 -3 -8 -7z"/>
<path d="M3237 1974 c-3 -4 -2 -14 2 -23 5 -9 7 -30 5 -48 -2 -18 0 -34 5 -37
4 -3 8 19 7 48 -1 54 -7 72 -19 60z"/>
<path d="M1937 1663 c-2 -5 -3 -26 -2 -48 l1 -40 1592 0 1592 0 0 47 0 48
-1589 0 c-875 0 -1592 -3 -1594 -7z"/>
<path d="M2730 1149 l0 -48 48 1 c26 0 52 -1 57 -2 6 -1 15 -1 20 0 32 7 56 6
61 -2 3 -4 10 -6 15 -2 9 5 199 9 224 4 6 -1 15 -1 20 0 32 7 56 6 61 -2 3 -4
10 -6 15 -2 9 5 199 9 224 4 6 -1 15 -1 20 0 32 7 56 6 61 -2 3 -4 10 -6 15
-2 9 5 199 9 224 4 6 -1 14 -2 20 0 11 2 206 2 220 -1 6 -1 15 0 20 1 12 2
206 2 220 0 6 -1 14 -2 20 -1 11 3 686 2 700 0 6 -1 15 0 20 1 6 1 30 3 55 4
l45 1 0 45 0 45 -1192 1 -1193 0 0 -47z"/>
<path d="M3531 715 c-6 -8 -7 -53 -2 -82 0 -5 358 -8 794 -8 l792 0 0 50 0 49
-788 1 c-515 0 -791 -3 -796 -10z"/>
</g>
</svg>
